<svg width="41" height="41" viewBox="0 0 41 41" fill="none" xmlns="http://www.w3.org/2000/svg">
<path d="M21.5942 18.7886C18.5162 15.6849 14.8413 17.7526 9.42275 17.4328C1.47613 16.9639 -1.23527 21.0182 0.504115 24.2753C2.2435 27.5324 7.2144 26.991 9.80217 29.8473L9.82349 29.8729L9.84907 29.8985C12.5477 32.6525 11.7036 37.6021 14.8541 39.512C18.0046 41.4219 22.2124 38.9834 22.2209 31.0197C22.2252 25.5926 24.5103 22.0499 21.5942 18.7886Z" fill="#001922"/>
<path d="M16.7256 8.8852C15.9625 12.9267 13.2341 15.8001 10.6292 15.3099C8.02442 14.8196 6.5323 11.1447 7.29541 7.10744C8.05853 3.07018 10.787 0.18826 13.3918 0.682793C15.9966 1.17732 17.4845 4.84794 16.7256 8.8852Z" fill="#001922"/>
<path d="M31.1907 24.2498C27.1108 24.7657 24.0754 27.3193 24.4122 29.9497C24.749 32.5801 28.3215 34.2854 32.4014 33.7866C36.4813 33.2878 39.5125 30.7128 39.1799 28.0867C38.8474 25.4606 35.2663 23.7297 31.1907 24.2498Z" fill="#001922"/>
<path d="M29.268 10.0064C26.6802 13.4894 22.7666 14.956 20.5242 13.2891C18.2817 11.6221 18.5588 7.44847 21.1466 3.96969C23.7344 0.490914 27.6437 -0.979899 29.8904 0.687016C32.1371 2.35393 31.8558 6.52762 29.268 10.0064Z" fill="#001922"/>
<path d="M30.8198 11.6563C27.1918 14.0309 25.4908 17.8507 27.0213 20.1827C28.5518 22.5147 32.734 22.4976 36.362 20.123C39.99 17.7484 41.691 13.9285 40.1605 11.5966C38.63 9.26459 34.4478 9.28592 30.8198 11.6563Z" fill="#001922"/>
</svg>
